# xmcd
#
# Track frame offsets:
#	151
#	18341
#	37814
#	62597
#	80077
#	101983
#	120440
#	139658
#	157914
#	179393
#	197788
#	222130
#	240329
#	261286
#	281750
#
# Disc length: 4046 seconds
#
# Revision: 0
# Processed by: cddbd v1.5.1PL2 Copyright (c) Steve Scherf et al.
# Submitted via: EasyCDDAExtractor 9.0.0.1
#
DISCID=cc0fcc0f
DTITLE=SANDY REYES - SU 15 EXITOS
DYEAR=2000
DGENRE=merengue
TTITLE0=EL TIBURON
TTITLE1=EL AMOR Y LA MODA
TTITLE2=MARGARITA
TTITLE3=SIEMPRE PELIANDO
TTITLE4=YO QUIERO ACARICIARTE
TTITLE5=ABUSADORA
TTITLE6=SINFONIA DE AMOR
TTITLE7=ENAMORADO
TTITLE8=MI NOVIA, AMANTE Y MUJER
TTITLE9=EL GUARDIA DEL ASERNAR
TTITLE10=LAS VENCIDAS
TTITLE11=QUISIERA SER
TTITLE12=UN PIE AQUI Y EL OTRO ALLA
TTITLE13=TE EGUIRE QUIERENDO
TTITLE14=GOLPE CON GOLPE
EXTD=
EXTT0=
EXTT1=
EXTT2=
EXTT3=
EXTT4=
EXTT5=
EXTT6=
EXTT7=
EXTT8=
EXTT9=
EXTT10=
EXTT11=
EXTT12=
EXTT13=
EXTT14=
PLAYORDER=
